<?xml version="1.0" encoding="UTF-8" standalone="no"?>
<!DOCTYPE svg PUBLIC "-//W3C//DTD SVG 1.1//EN"
 "http://www.w3.org/Graphics/SVG/1.1/DTD/svg11.dtd">
<!-- Generated by graphviz version 2.26.3 (20100126.1600)
 -->
<!-- Title: MessageServiceImpl Pages: 1 -->
<svg width="1162pt" height="188pt"
 viewBox="0.00 0.00 1162.00 188.00" xmlns="http://www.w3.org/2000/svg" xmlns:xlink="http://www.w3.org/1999/xlink">
<g id="graph1" class="graph" transform="scale(1 1) rotate(0) translate(4 184)">
<title>MessageServiceImpl</title>
<polygon fill="white" stroke="white" points="-4,5 -4,-184 1159,-184 1159,5 -4,5"/>
<!-- getMessages -->
<g id="node1" class="node"><title>getMessages</title>
<polygon fill="none" stroke="black" points="518,-180 430,-180 430,-144 518,-144 518,-180"/>
<text text-anchor="middle" x="474" y="-156.9" font-family="Times,serif" font-size="14.00">getMessages</text>
</g>
<!-- authenticatePlayer -->
<g id="node5" class="node"><title>authenticatePlayer</title>
<ellipse fill="none" stroke="black" cx="78" cy="-90" rx="78.1421" ry="18"/>
<text text-anchor="middle" x="78" y="-84.9" font-family="Times,serif" font-size="14.00">authenticatePlayer</text>
</g>
<!-- getMessages&#45;&gt;authenticatePlayer -->
<g id="edge2" class="edge"><title>getMessages&#45;&gt;authenticatePlayer</title>
<path fill="none" stroke="black" d="M429.915,-154.374C350.814,-140.679 190.61,-112.886 165,-108 158.736,-106.805 152.226,-105.526 145.713,-104.223"/>
<polygon fill="black" stroke="black" points="146.006,-100.711 135.511,-102.161 144.62,-107.572 146.006,-100.711"/>
</g>
<!-- updateUserWithPlayer -->
<g id="node6" class="node"><title>updateUserWithPlayer</title>
<ellipse fill="none" stroke="black" cx="328" cy="-90" rx="154.186" ry="18"/>
<text text-anchor="middle" x="328" y="-84.9" font-family="Times,serif" font-size="14.00">updateUserWithPlayer: session, player</text>
</g>
<!-- getMessages&#45;&gt;updateUserWithPlayer -->
<g id="edge4" class="edge"><title>getMessages&#45;&gt;updateUserWithPlayer</title>
<path fill="none" stroke="black" d="M437.158,-143.831C417.599,-134.186 393.406,-122.255 372.771,-112.079"/>
<polygon fill="black" stroke="black" points="374.086,-108.825 363.57,-107.541 370.99,-115.103 374.086,-108.825"/>
</g>
<!-- updateUserLocationIfArrived -->
<g id="node7" class="node"><title>updateUserLocationIfArrived</title>
<ellipse fill="none" stroke="black" cx="981" cy="-90" rx="172.885" ry="18"/>
<text text-anchor="middle" x="981" y="-84.9" font-family="Times,serif" font-size="14.00">updateUserLocationIfArrived: session, user</text>
</g>
<!-- getMessages&#45;&gt;updateUserLocationIfArrived -->
<g id="edge7" class="edge"><title>getMessages&#45;&gt;updateUserLocationIfArrived</title>
<path fill="none" stroke="black" d="M518.134,-154.068C536.876,-150.795 558.98,-147.06 579,-144 673.125,-129.615 779.97,-115.361 859.839,-105.113"/>
<polygon fill="black" stroke="black" points="860.461,-108.562 869.935,-103.82 859.572,-101.618 860.461,-108.562"/>
</g>
<!-- updateCacheMap -->
<g id="node8" class="node"><title>updateCacheMap</title>
<ellipse fill="none" stroke="black" cx="645" cy="-90" rx="145.087" ry="18"/>
<text text-anchor="middle" x="645" y="-84.9" font-family="Times,serif" font-size="14.00">updateCacheMap: session, user, true</text>
</g>
<!-- getMessages&#45;&gt;updateCacheMap -->
<g id="edge10" class="edge"><title>getMessages&#45;&gt;updateCacheMap</title>
<path fill="none" stroke="black" d="M517.151,-143.831C540.646,-133.938 569.851,-121.642 594.414,-111.3"/>
<polygon fill="black" stroke="black" points="596.068,-114.401 603.926,-107.294 593.351,-107.949 596.068,-114.401"/>
</g>
<!-- sendMessages -->
<g id="node2" class="node"><title>sendMessages</title>
<polygon fill="none" stroke="black" points="202,-180 106,-180 106,-144 202,-144 202,-180"/>
<text text-anchor="middle" x="154" y="-156.9" font-family="Times,serif" font-size="14.00">sendMessages</text>
</g>
<!-- sendMessages&#45;&gt;authenticatePlayer -->
<g id="edge15" class="edge"><title>sendMessages&#45;&gt;authenticatePlayer</title>
<path fill="none" stroke="black" d="M134.822,-143.831C125.501,-135.001 114.159,-124.256 104.066,-114.694"/>
<polygon fill="black" stroke="black" points="106.313,-112.002 96.6464,-107.665 101.499,-117.083 106.313,-112.002"/>
</g>
<!-- sendMessages&#45;&gt;updateUserWithPlayer -->
<g id="edge12" class="edge"><title>sendMessages&#45;&gt;updateUserWithPlayer</title>
<path fill="none" stroke="black" d="M197.908,-143.831C221.832,-133.931 251.574,-121.625 276.578,-111.278"/>
<polygon fill="black" stroke="black" points="278.005,-114.475 285.907,-107.418 275.329,-108.007 278.005,-114.475"/>
</g>
<!-- moveToLocation -->
<g id="node3" class="node"><title>moveToLocation</title>
<polygon fill="none" stroke="black" points="702,-180 588,-180 588,-144 702,-144 702,-180"/>
<text text-anchor="middle" x="645" y="-156.9" font-family="Times,serif" font-size="14.00">moveToLocation</text>
</g>
<!-- moveToLocation&#45;&gt;updateUserWithPlayer -->
<g id="edge17" class="edge"><title>moveToLocation&#45;&gt;updateUserWithPlayer</title>
<path fill="none" stroke="black" d="M587.961,-149.045C537.934,-137.682 464.642,-121.036 408.623,-108.312"/>
<polygon fill="black" stroke="black" points="409.254,-104.866 398.728,-106.064 407.704,-111.692 409.254,-104.866"/>
</g>
<!-- moveToLocation&#45;&gt;updateUserLocationIfArrived -->
<g id="edge20" class="edge"><title>moveToLocation&#45;&gt;updateUserLocationIfArrived</title>
<path fill="none" stroke="black" d="M702.379,-149.705C755.377,-138.348 834.815,-121.325 895.326,-108.359"/>
<polygon fill="black" stroke="black" points="896.203,-111.75 905.248,-106.233 894.736,-104.906 896.203,-111.75"/>
</g>
<!-- moveToLocation&#45;&gt;updateCacheMap -->
<g id="edge23" class="edge"><title>moveToLocation&#45;&gt;updateCacheMap</title>
<path fill="none" stroke="black" d="M645,-143.831C645,-136.131 645,-126.974 645,-118.417"/>
<polygon fill="black" stroke="black" points="648.5,-118.413 645,-108.413 641.5,-118.413 648.5,-118.413"/>
</g>
<!-- takeItem -->
<g id="node4" class="node"><title>takeItem</title>
<polygon fill="none" stroke="black" points="360,-180 296,-180 296,-144 360,-144 360,-180"/>
<text text-anchor="middle" x="328" y="-156.9" font-family="Times,serif" font-size="14.00">takeItem</text>
</g>
<!-- takeItem&#45;&gt;authenticatePlayer -->
<g id="edge25" class="edge"><title>takeItem&#45;&gt;authenticatePlayer</title>
<path fill="none" stroke="black" d="M295.829,-152.735C255.647,-141.162 186.148,-121.147 136.455,-106.835"/>
<polygon fill="black" stroke="black" points="137.373,-103.457 126.795,-104.053 135.436,-110.184 137.373,-103.457"/>
</g>
<!-- takeItem&#45;&gt;updateUserWithPlayer -->
<g id="edge27" class="edge"><title>takeItem&#45;&gt;updateUserWithPlayer</title>
<path fill="none" stroke="black" d="M328,-143.831C328,-136.131 328,-126.974 328,-118.417"/>
<polygon fill="black" stroke="black" points="331.5,-118.413 328,-108.413 324.5,-118.413 331.5,-118.413"/>
</g>
<!-- takeItem&#45;&gt;updateCacheMap -->
<g id="edge30" class="edge"><title>takeItem&#45;&gt;updateCacheMap</title>
<path fill="none" stroke="black" d="M360.14,-154.7C407.825,-143.869 498.811,-123.204 565.161,-108.134"/>
<polygon fill="black" stroke="black" points="566.198,-111.487 575.175,-105.859 564.648,-104.661 566.198,-111.487"/>
</g>
<!-- setUserProperties -->
<g id="node9" class="node"><title>setUserProperties</title>
<ellipse fill="none" stroke="black" cx="328" cy="-18" rx="76.0433" ry="18"/>
<text text-anchor="middle" x="328" y="-12.9" font-family="Times,serif" font-size="14.00">setUserProperties</text>
</g>
<!-- updateUserWithPlayer&#45;&gt;setUserProperties -->
<g id="edge18" class="edge"><title>updateUserWithPlayer&#45;&gt;setUserProperties</title>
<path fill="none" stroke="black" d="M310.143,-71.8314C307.832,-63.9266 307.195,-54.4872 308.232,-45.7365"/>
<polygon fill="black" stroke="black" points="311.667,-46.4088 310.218,-35.9134 304.806,-45.0213 311.667,-46.4088"/>
</g>
<!-- updateUserWithPlayer&#45;&gt;setUserProperties -->
<g id="edge28" class="edge"><title>updateUserWithPlayer&#45;&gt;setUserProperties</title>
<path fill="none" stroke="black" d="M345.857,-71.8314C348.168,-63.9266 348.805,-54.4872 347.768,-45.7365"/>
<polygon fill="black" stroke="black" points="351.194,-45.0213 345.782,-35.9134 344.333,-46.4088 351.194,-45.0213"/>
</g>
<!-- updateUserWithPlayer&#45;&gt;setUserProperties -->
<g id="edge5" class="edge"><title>updateUserWithPlayer&#45;&gt;setUserProperties</title>
<path fill="none" stroke="black" d="M322.048,-71.8314C321.297,-64.131 321.076,-54.9743 321.385,-46.4166"/>
<polygon fill="black" stroke="black" points="324.879,-46.6161 322.024,-36.4133 317.893,-46.1697 324.879,-46.6161"/>
</g>
<!-- updateUserWithPlayer&#45;&gt;setUserProperties -->
<g id="edge13" class="edge"><title>updateUserWithPlayer&#45;&gt;setUserProperties</title>
<path fill="none" stroke="black" d="M333.952,-71.8314C334.703,-64.131 334.924,-54.9743 334.615,-46.4166"/>
<polygon fill="black" stroke="black" points="338.107,-46.1697 333.976,-36.4133 331.121,-46.6161 338.107,-46.1697"/>
</g>
<!-- updateUserLocationIfArrived&#45;&gt;setUserProperties -->
<g id="edge21" class="edge"><title>updateUserLocationIfArrived&#45;&gt;setUserProperties</title>
<path fill="none" stroke="black" d="M859.323,-77.1693C726.897,-62.8005 519.133,-39.8695 406.632,-27.1868"/>
<polygon fill="black" stroke="black" points="406.709,-23.6733 396.379,-26.0295 405.924,-30.6291 406.709,-23.6733"/>
</g>
<!-- updateUserLocationIfArrived&#45;&gt;setUserProperties -->
<g id="edge8" class="edge"><title>updateUserLocationIfArrived&#45;&gt;setUserProperties</title>
<path fill="none" stroke="black" d="M865.094,-76.6261C733.445,-61.8817 522.195,-38.6218 407.776,-26.2997"/>
<polygon fill="black" stroke="black" points="408.003,-22.804 397.686,-25.2145 407.254,-29.7638 408.003,-22.804"/>
</g>
</g>
</svg>
